<svg width="64" height="64" viewBox="0 0 64 64" fill="none" xmlns="http://www.w3.org/2000/svg">
<rect width="64" height="64" fill="#E5E5E5"/>
<g id="V1 C" clip-path="url(#clip0_0_1)">
<rect width="1440" height="1024" transform="translate(-26 -347)" fill="white"/>
<g id="Nav">
<g id="BG" filter="url(#filter0_d_0_1)">
<rect x="-26" y="-347" width="117" height="1024" fill="#020203"/>
</g>
<g id=".nav-l">
<g id=".icon">
<rect id=".icon_2" width="64" height="64" rx="6" fill="white"/>
<g id="Group">
<path id="Vector" d="M32 22C34.2091 22 36 20.2091 36 18C36 15.7909 34.2091 14 32 14C29.7909 14 28 15.7909 28 18C28 20.2091 29.7909 22 32 22Z" fill="#FF0101"/>
<path id="Vector_2" d="M50 38V34C45.52 34 41.68 32.08 38.8 28.64L36.12 25.44C35.36 24.52 34.24 24 33.06 24H30.96C29.78 24 28.66 24.52 27.9 25.44L25.22 28.64C22.32 32.08 18.48 34 14 34V38C19.54 38 24.38 35.66 28 31.5V36L20.24 39.1C18.9 39.64 18 40.96 18 42.42C18 44.4 19.6 46 21.58 46H26V45C26 42.24 28.24 40 31 40H37C37.56 40 38 40.44 38 41C38 41.56 37.56 42 37 42H31C29.34 42 28 43.34 28 45V46H42.42C44.4 46 46 44.4 46 42.42C46 40.96 45.1 39.64 43.76 39.1L36 36V31.5C39.62 35.66 44.46 38 50 38Z" fill="#FF0101"/>
</g>
</g>
</g>
</g>
</g>
<defs>
<filter id="filter0_d_0_1" x="-30" y="-347" width="125" height="1032" filterUnits="userSpaceOnUse" color-interpolation-filters="sRGB">
<feFlood flood-opacity="0" result="BackgroundImageFix"/>
<feColorMatrix in="SourceAlpha" type="matrix" values="0 0 0 0 0 0 0 0 0 0 0 0 0 0 0 0 0 0 127 0" result="hardAlpha"/>
<feOffset dy="4"/>
<feGaussianBlur stdDeviation="2"/>
<feColorMatrix type="matrix" values="0 0 0 0 0 0 0 0 0 0 0 0 0 0 0 0 0 0 0.25 0"/>
<feBlend mode="normal" in2="BackgroundImageFix" result="effect1_dropShadow_0_1"/>
<feBlend mode="normal" in="SourceGraphic" in2="effect1_dropShadow_0_1" result="shape"/>
</filter>
<clipPath id="clip0_0_1">
<rect width="1440" height="1024" fill="white" transform="translate(-26 -347)"/>
</clipPath>
</defs>
</svg>
